<?xml version="1.0" encoding="utf-8"?>
<!-- Generator: Adobe Illustrator 16.0.0, SVG Export Plug-In . SVG Version: 6.00 Build 0)  -->
<!DOCTYPE svg PUBLIC "-//W3C//DTD SVG 1.1//EN" "http://www.w3.org/Graphics/SVG/1.1/DTD/svg11.dtd">
<svg version="1.1" id="blk_hole_sun" xmlns="http://www.w3.org/2000/svg" xmlns:xlink="http://www.w3.org/1999/xlink" x="0px"
	 y="0px" width="309px" height="308.875px" viewBox="0 0 309 308.875" enable-background="new 0 0 309 308.875"
	 xml:space="preserve">
<g id="parts_group">
	<path d="M112.433,273.9l-5.996-7.305l4.384-9.08l3.009,1.443l-3.567,7.688l4.68,5.271l9.034-4.738l8.504,6.99l-2.361,2.449
		l-6.254-5.267l-7.432,4.004l-2.46,7.571l4.111,2.73l6.078-2.795l1.733,2.683l-7.963,3.563l-4.899-3.29l-1.075,3.31
		c0,0,2.6,1.885,1.427,5.496c-0.886,2.723-3.807,4.213-6.53,3.328c-2.725-0.885-4.213-3.807-3.329-6.531
		c1.184-3.701,4.385-3.607,4.385-3.607l1.45-4.461l-3.765-2.526l-5.577,3.09l-1.708-2.567l7.378-4.049l4.615,3.145L112.433,273.9z"
		/>
	<path d="M231.956,56.781l3.445,8.8l-6.975,7.281l-2.416-2.302l5.768-6.208l-2.821-6.46L218.9,59.605l-5.929-9.277l3.003-1.599
		l4.32,6.941l8.306-1.511l4.679-6.441l-3.065-3.867l-6.645,0.78l-0.819-3.087l8.675-0.927l3.642,4.643l2.045-2.816
		c0,0-1.89-2.596,0.342-5.668c1.684-2.316,4.922-2.83,7.238-1.147c2.318,1.684,2.831,4.922,1.147,7.24
		c-2.27,3.154-5.285,2.076-5.285,2.076l-2.757,3.794l2.799,3.566l6.26-1.215l0.83,2.97l-8.269,1.57l-3.418-4.417L231.956,56.781z"/>
	<path d="M51.189,226.339l-0.558-9.435l8.883-4.769l1.587,2.937l-7.405,4.122l0.687,7.017l10.095,1.477l2.771,10.654l-3.35,0.593
		l-1.963-7.937l-8.366-1.129l-6.441,4.68l1.721,4.625l6.561,1.311l-0.175,3.189l-8.537-1.799l-2.029-5.541l-2.815,2.046
		c0,0,0.995,3.054-2.076,5.285c-2.317,1.683-5.556,1.171-7.239-1.146c-1.684-2.317-1.171-5.557,1.146-7.24
		c3.133-2.298,5.668-0.341,5.668-0.341l3.795-2.757l-1.56-4.257l-6.329-0.778l0.128-3.081l8.35,1.062l1.885,5.257L51.189,226.339z"
		/>
	<path d="M275.505,120.939l-2.385,9.145l-9.923,1.79l-0.602-3.283l8.316-1.632l1.515-6.885l-9.145-4.524l0.656-10.989l3.37,0.472
		l-0.585,8.155l7.607,3.659l7.571-2.46l-0.207-4.931l-5.835-3.274l1.152-2.98l7.563,4.349l0.218,5.897l3.31-1.076
		c0,0-0.003-3.211,3.607-4.385c2.725-0.884,5.646,0.603,6.531,3.327c0.886,2.725-0.604,5.646-3.327,6.531
		c-3.69,1.218-5.496-1.427-5.496-1.427l-4.462,1.449l0.169,4.531l5.778,2.695l-1.074,2.891l-7.612-3.59l-0.169-5.582
		L275.505,120.939z"/>
	<path d="M29.598,151.863l5.094-7.96l9.99,1.364l-0.442,3.308l-8.413-1.017l-3.568,6.08l7.299,7.128l-4.02,10.249l-3.059-1.489
		l3.076-7.575l-6.104-5.831h-7.962l-1.326,4.754l4.537,4.917l-2.017,2.478l-5.849-6.474l1.617-5.675h-3.481
		c0,0-0.989,3.056-4.786,3.056C7.319,159.173,5,156.855,5,153.991c0-2.864,2.318-5.183,5.183-5.183
		c3.886-0.018,4.786,3.055,4.786,3.055l4.691,0l1.24-4.361l-4.662-4.349l1.915-2.417l6.13,5.767l-1.564,5.361L29.598,151.863z"/>
	<path d="M273.025,198.442l-7.305,5.996l-9.08-4.383l1.443-3.01l7.687,3.567l5.272-4.68l-4.738-9.035l6.99-8.505l2.449,2.362
		l-5.267,6.254l4.003,7.432l7.572,2.46l2.73-4.111l-2.796-6.078l2.684-1.733l3.563,7.964l-3.291,4.898l3.311,1.075
		c0,0,1.885-2.601,5.496-1.427c2.724,0.886,4.213,3.806,3.328,6.53c-0.886,2.725-3.807,4.213-6.531,3.328
		c-3.701-1.185-3.607-4.385-3.607-4.385l-4.461-1.45l-2.526,3.765l3.09,5.576l-2.568,1.708l-4.048-7.379l3.145-4.615
		L273.025,198.442z"/>
	<path d="M55.906,78.92l8.8-3.446l7.28,6.975l-2.303,2.416l-6.208-5.768l-6.46,2.821l1.715,10.057l-9.276,5.928l-1.6-3.002
		l6.941-4.321l-1.51-8.305l-6.442-4.68l-3.867,3.066l0.781,6.645l-3.088,0.819l-0.928-8.675l4.644-3.642l-2.816-2.046
		c0,0-2.596,1.891-5.668-0.341c-2.316-1.685-2.831-4.922-1.147-7.239c1.684-2.318,4.922-2.83,7.239-1.146
		c3.155,2.27,2.076,5.285,2.076,5.285l3.795,2.757l3.566-2.8l-1.216-6.258l2.97-0.831l1.57,8.269l-4.417,3.417L55.906,78.92z"/>
	<path d="M225.464,259.686l-9.435,0.558l-4.769-8.883l2.937-1.586l4.122,7.403l7.017-0.687l1.477-10.095l10.653-2.771l0.594,3.35
		l-7.937,1.965l-1.13,8.365l4.681,6.441l4.625-1.722l1.311-6.561l3.19,0.175l-1.799,8.537l-5.542,2.028l2.046,2.816
		c0,0,3.054-0.996,5.285,2.075c1.683,2.318,1.171,5.556-1.146,7.239c-2.317,1.685-5.557,1.171-7.239-1.146
		c-2.3-3.133-0.342-5.668-0.342-5.668l-2.757-3.795l-4.257,1.561l-0.778,6.328l-3.081-0.128l1.063-8.35l5.256-1.885L225.464,259.686
		z"/>
	<path d="M120.064,35.371l9.145,2.385L131,47.678l-3.284,0.601l-1.632-8.315l-6.885-1.515l-4.524,9.145l-10.989-0.657l0.471-3.369
		l8.155,0.585l3.66-7.607l-2.461-7.572l-4.931,0.208l-3.274,5.834l-2.979-1.152l4.349-7.563l5.897-0.217l-1.076-3.311
		c0,0-3.211,0.004-4.385-3.607c-0.884-2.725,0.603-5.646,3.327-6.531c2.725-0.886,5.646,0.604,6.531,3.328
		c1.218,3.69-1.427,5.496-1.427,5.496l1.449,4.461l4.531-0.168l2.695-5.777l2.891,1.074l-3.59,7.612l-5.582,0.169L120.064,35.371z"
		/>
	<path d="M150.988,281.277l-7.96-5.095l1.363-9.989l3.308,0.443l-1.017,8.412l6.08,3.569l7.129-7.3l10.248,4.021l-1.488,3.06
		l-7.576-3.077l-5.832,6.104l0.001,7.962l4.753,1.326l4.917-4.538l2.478,2.018l-6.473,5.849l-5.676-1.616v3.48
		c0,0,3.056,0.989,3.056,4.786c-0.001,2.864-2.318,5.183-5.182,5.183c-2.865,0.001-5.183-2.318-5.183-5.183
		c-0.018-3.886,3.055-4.786,3.055-4.786v-4.69l-4.361-1.239l-4.349,4.662l-2.417-1.915l5.767-6.13l5.36,1.564L150.988,281.277z"/>
	<path d="M197.566,37.851l5.997,7.305l-4.384,9.079l-3.009-1.444l3.566-7.686l-4.679-5.273l-9.035,4.739l-8.505-6.99l2.361-2.45
		l6.254,5.267l7.433-4.003l2.46-7.573l-4.111-2.73l-6.078,2.796l-1.733-2.684l7.964-3.562l4.898,3.291l1.075-3.311
		c0,0-2.6-1.885-1.427-5.496c0.886-2.724,3.806-4.213,6.53-3.328c2.725,0.885,4.213,3.807,3.327,6.53
		c-1.184,3.702-4.385,3.607-4.385,3.607l-1.449,4.461l3.765,2.527l5.576-3.09l1.708,2.568l-7.38,4.048l-4.614-3.145L197.566,37.851z
		"/>
	<path d="M78.045,254.97l-3.446-8.801l6.975-7.28l2.416,2.303l-5.767,6.208l2.821,6.461l10.057-1.715l5.929,9.276l-3.003,1.6
		l-4.32-6.942l-8.306,1.511l-4.679,6.442l3.066,3.866l6.645-0.78l0.819,3.088l-8.674,0.927l-3.642-4.643l-2.046,2.815
		c0,0,1.89,2.596-0.341,5.668c-1.684,2.317-4.922,2.83-7.239,1.146c-2.318-1.684-2.83-4.922-1.147-7.238
		c2.27-3.155,5.285-2.076,5.285-2.076l2.757-3.795l-2.799-3.566l-6.259,1.216l-0.83-2.971l8.269-1.569l3.417,4.417L78.045,254.97z"
		/>
	<path d="M258.811,85.411l0.558,9.435l-8.883,4.769l-1.585-2.937l7.402-4.122l-0.686-7.016l-10.096-1.477l-2.771-10.654l3.351-0.594
		l1.963,7.937l8.366,1.13l6.441-4.681l-1.722-4.625l-6.561-1.311l0.176-3.19l8.536,1.799l2.028,5.542l2.816-2.046
		c0,0-0.996-3.053,2.075-5.285c2.318-1.683,5.556-1.171,7.239,1.146c1.685,2.317,1.171,5.556-1.146,7.239
		c-3.134,2.299-5.668,0.341-5.668,0.341l-3.794,2.757l1.56,4.256l6.328,0.778l-0.128,3.082l-8.35-1.063l-1.885-5.256L258.811,85.411
		z"/>
	<path d="M34.496,190.812l2.385-9.146l9.922-1.79l0.6,3.282l-8.314,1.633l-1.516,6.885l9.145,4.524l-0.656,10.989l-3.37-0.471
		l0.585-8.155l-7.607-3.66l-7.572,2.461l0.208,4.931l5.834,3.273l-1.153,2.98l-7.563-4.35l-0.217-5.896l-3.311,1.075
		c0,0,0.003,3.212-3.607,4.386c-2.725,0.884-5.646-0.604-6.531-3.328c-0.886-2.724,0.604-5.646,3.327-6.53
		c3.69-1.218,5.496,1.427,5.496,1.427l4.461-1.449l-0.168-4.53l-5.777-2.695l1.074-2.892l7.611,3.591l0.169,5.582L34.496,190.812z"
		/>
	<path d="M280.402,159.887l-5.095,7.961l-9.989-1.364l0.443-3.308l8.412,1.018l3.569-6.079l-7.299-7.129l4.02-10.249l3.06,1.489
		l-3.077,7.575l6.104,5.832l7.961,0l1.326-4.753l-4.537-4.917l2.018-2.478l5.849,6.473l-1.616,5.675h3.48
		c0,0,0.99-3.056,4.786-3.056c2.864,0,5.183,2.318,5.183,5.183c0.001,2.865-2.318,5.183-5.183,5.183
		c-3.886,0.019-4.786-3.055-4.786-3.055h-4.689l-1.24,4.36l4.661,4.349l-1.915,2.418l-6.129-5.768l1.564-5.36L280.402,159.887z"/>
	<path d="M36.975,113.309l7.305-5.997l9.079,4.384l-1.443,3.009l-7.687-3.567l-5.273,4.678l4.739,9.036l-6.99,8.505l-2.45-2.361
		l5.267-6.254l-4.003-7.433l-7.572-2.46l-2.729,4.111l2.795,6.079l-2.684,1.733l-3.563-7.964l3.291-4.898l-3.311-1.076
		c0,0-1.885,2.601-5.496,1.428c-2.724-0.885-4.212-3.806-3.328-6.53c0.885-2.725,3.807-4.212,6.531-3.328
		c3.701,1.184,3.607,4.384,3.607,4.384l4.46,1.45l2.527-3.764l-3.09-5.577l2.568-1.708l4.047,7.379l-3.144,4.614L36.975,113.309z"/>
	<path d="M254.095,232.83l-8.801,3.446l-7.28-6.976l2.303-2.415l6.208,5.768l6.461-2.82l-1.714-10.058l9.275-5.929l1.6,3.003
		l-6.941,4.32l1.51,8.306l6.441,4.679l3.867-3.065l-0.78-6.646l3.088-0.818l0.927,8.675l-4.644,3.642l2.816,2.046
		c0,0,2.597-1.891,5.668,0.341c2.317,1.684,2.83,4.922,1.146,7.239s-4.922,2.83-7.239,1.146c-3.154-2.271-2.075-5.285-2.075-5.285
		l-3.795-2.757l-3.566,2.799l1.216,6.259l-2.971,0.83l-1.568-8.269l4.415-3.417L254.095,232.83z"/>
	<path d="M84.536,52.065l9.436-0.558l4.768,8.883l-2.936,1.586l-4.121-7.404l-7.017,0.686l-1.478,10.095l-10.653,2.772l-0.593-3.351
		l7.937-1.963l1.13-8.366l-4.68-6.441l-4.625,1.722l-1.311,6.561l-3.19-0.175L69,47.575l5.542-2.028l-2.046-2.816
		c0,0-3.054,0.996-5.286-2.076c-1.684-2.317-1.17-5.556,1.146-7.239c2.317-1.684,5.556-1.171,7.239,1.146
		c2.298,3.133,0.341,5.668,0.341,5.668l2.756,3.794l4.257-1.559l0.779-6.328l3.081,0.127l-1.063,8.349l-5.255,1.886L84.536,52.065z"
		/>
	<path d="M189.937,276.379l-9.146-2.385l-1.79-9.922l3.283-0.601l1.631,8.314l6.886,1.517l4.524-9.145l10.989,0.656l-0.471,3.369
		l-8.155-0.585l-3.66,7.607l2.461,7.571l4.93-0.207l3.274-5.835l2.979,1.152l-4.349,7.563l-5.896,0.216l1.075,3.311
		c0,0,3.212-0.003,4.386,3.607c0.885,2.725-0.604,5.646-3.328,6.53c-2.725,0.886-5.646-0.604-6.53-3.327
		c-1.218-3.689,1.427-5.495,1.427-5.495l-1.449-4.461l-4.53,0.168l-2.695,5.777l-2.892-1.073l3.592-7.611l5.58-0.17L189.937,276.379
		z"/>
	<path d="M159.012,30.473l7.961,5.094l-1.364,9.989l-3.308-0.443l1.018-8.412l-6.08-3.57l-7.128,7.299l-10.248-4.02l1.489-3.06
		l7.575,3.077l5.832-6.104v-7.961l-4.754-1.326l-4.917,4.538l-2.478-2.017l6.473-5.849l5.675,1.617v-3.481
		c0,0-3.056-0.989-3.056-4.786c0-2.864,2.318-5.183,5.183-5.183c2.864,0,5.182,2.319,5.182,5.183
		c0.018,3.885-3.055,4.786-3.055,4.786v4.689l4.359,1.241l4.35-4.662l2.418,1.914l-5.768,6.129l-5.359-1.563V30.473z"/>
	<circle cx="155" cy="155.875" r="110.318"/>
</g>
</svg>
